<svg width="1100" height="806" viewBox="0 0 1100 806" xmlns="http://www.w3.org/2000/svg" role="img" aria-labelledby="ttl desc">
  <title id="ttl">Alok build telemetry</title>
  <desc id="desc">Streak hero, trajectory, vitals, language mix, work categories, top projects, and OSS contributions.</desc>
  <style>text { font-family: 'JetBrains Mono', 'SF Mono', ui-monospace, Menlo, monospace; } .sans { font-family: 'Inter', ui-sans-serif, system-ui, sans-serif; }</style>
  <defs>
  <linearGradient id="bgGrad" x1="0" x2="1" y1="0" y2="1">
    <stop offset="0" stop-color="#0a0a0a"/>
    <stop offset="1" stop-color="#050505"/>
  </linearGradient>
  <pattern id="dots" width="20" height="20" patternUnits="userSpaceOnUse">
    <circle cx="1" cy="1" r="0.9" fill="#1f1f1f" opacity="0.55"/>
  </pattern>
  <linearGradient id="limeFade" x1="0" x2="0" y1="0" y2="1">
    <stop offset="0" stop-color="#F7EE00" stop-opacity="0.55"/>
    <stop offset="1" stop-color="#F7EE00" stop-opacity="0"/>
  </linearGradient>
  <linearGradient id="cyanFade" x1="0" x2="0" y1="0" y2="1">
    <stop offset="0" stop-color="#5fd4d0" stop-opacity="0.45"/>
    <stop offset="1" stop-color="#5fd4d0" stop-opacity="0"/>
  </linearGradient>
</defs>
  <rect width="1100" height="806" rx="10" fill="url(#bgGrad)"/>
<rect width="1100" height="806" rx="10" fill="url(#dots)"/>
<rect x="0.5" y="0.5" width="1099" height="805" rx="9.5" fill="none" stroke="#333333"/>


  <!-- Header -->
  <text x="44" y="56" fill="#f5f5f0" font-size="26" font-weight="800" letter-spacing="-0.5" class="sans">build telemetry</text>
  <text x="44" y="76" fill="#7a7a72" font-size="11" letter-spacing="1">AI/ML ENGINEERING · AGENTIC SYSTEMS · 2026-07-06</text>
  <line x1="44" y1="86" x2="1056" y2="86" stroke="#333333"/>

  <!-- Hero: streak + trajectory -->
  <g>
    <text x="44" y="108" fill="#7a7a72" font-size="10" font-weight="700" letter-spacing="2">CURRENT STREAK</text>
    <text x="44" y="201" fill="#F7EE00" font-size="118" font-weight="900" letter-spacing="-6" class="sans">43<tspan font-size="40" fill="#f5f5f0" font-weight="800">d</tspan></text>
    <text x="44" y="234" fill="#c9c9c0" font-size="13">longest run 43d · quiet stretch 60d</text>
  </g>
  <g>
    <text x="470" y="108" fill="#7a7a72" font-size="10" font-weight="700" letter-spacing="2">12-MONTH TRAJECTORY</text>
    <line x1="470" y1="254" x2="1056" y2="254" stroke="#242424"/>
<line x1="470" y1="114" x2="1056" y2="114" stroke="#242424" stroke-dasharray="2 4"/>
<text x="464" y="118" fill="#4a4a44" font-size="9" text-anchor="end">264</text>
<text x="464" y="257" fill="#4a4a44" font-size="9" text-anchor="end">0</text>
    <polygon points="470,254 470.00,254.00 523.27,211.05 576.55,186.12 629.82,224.30 683.09,203.62 736.36,163.32 789.64,180.82 842.91,172.86 896.18,165.44 949.45,114.00 1002.73,119.30 1056.00,224.83 1056,254" fill="url(#limeFade)"/>
    <polyline points="470.00,254.00 523.27,211.05 576.55,186.12 629.82,224.30 683.09,203.62 736.36,163.32 789.64,180.82 842.91,172.86 896.18,165.44 949.45,114.00 1002.73,119.30 1056.00,224.83" fill="none" stroke="#F7EE00" stroke-width="2.5" stroke-linecap="round" stroke-linejoin="round"/>
    <circle cx="949.5" cy="114.0" r="4" fill="#ff8a3d" stroke="#0a0a0a" stroke-width="2"/>
<text x="955.5" y="106.0" fill="#ff8a3d" font-size="10" font-weight="700" text-anchor="start">peak · 264</text>
<circle cx="1056.0" cy="224.8" r="4" fill="#F7EE00" stroke="#0a0a0a" stroke-width="2"/>
<text x="1050.0" y="216.8" fill="#F7EE00" font-size="10" font-weight="700" text-anchor="end">now · 55</text>
    <text x="470.0" y="270" fill="#4a4a44" font-size="10" text-anchor="middle">Aug</text>
<text x="576.5" y="270" fill="#4a4a44" font-size="10" text-anchor="middle">Oct</text>
<text x="683.1" y="270" fill="#4a4a44" font-size="10" text-anchor="middle">Dec</text>
<text x="789.6" y="270" fill="#4a4a44" font-size="10" text-anchor="middle">Feb</text>
<text x="896.2" y="270" fill="#4a4a44" font-size="10" text-anchor="middle">Apr</text>
<text x="1002.7" y="270" fill="#4a4a44" font-size="10" text-anchor="middle">Jun</text>
  </g>

  <!-- Vitals -->
  <line x1="44" y1="280" x2="1056" y2="280" stroke="#242424"/>
  <text x="44" y="292" fill="#7a7a72" font-size="10" font-weight="700" letter-spacing="2">VITALS</text>
  <text x="44.0" y="320" fill="#7a7a72" font-size="10" font-weight="700" letter-spacing="1.5">ALL CONTRIBUTIONS</text>
<text x="44.0" y="340" fill="#F7EE00" font-size="24" font-weight="800" letter-spacing="-1">1,562</text>
<text x="44.0" y="358" fill="#4a4a44" font-size="11">GitHub calendar</text>
<text x="246.4" y="320" fill="#7a7a72" font-size="10" font-weight="700" letter-spacing="1.5">30D VELOCITY</text>
<text x="246.4" y="340" fill="#ff5f5f" font-size="24" font-weight="800" letter-spacing="-1">254</text>
<text x="246.4" y="358" fill="#4a4a44" font-size="11">▼ -20% vs prior 30</text>
<line x1="236.4" y1="316" x2="236.4" y2="370" stroke="#242424"/>
<text x="448.8" y="320" fill="#7a7a72" font-size="10" font-weight="700" letter-spacing="1.5">ACTIVE DAYS</text>
<text x="448.8" y="340" fill="#5fd4d0" font-size="24" font-weight="800" letter-spacing="-1">49%</text>
<text x="448.8" y="358" fill="#4a4a44" font-size="11">mean gap 1.7d</text>
<line x1="438.8" y1="316" x2="438.8" y2="370" stroke="#242424"/>
<text x="651.2" y="320" fill="#7a7a72" font-size="10" font-weight="700" letter-spacing="1.5">OSS PRS MERGED</text>
<text x="651.2" y="340" fill="#9d8cff" font-size="24" font-weight="800" letter-spacing="-1">11</text>
<text x="651.2" y="358" fill="#4a4a44" font-size="11">across 7 external repos</text>
<line x1="641.2" y1="316" x2="641.2" y2="370" stroke="#242424"/>
<text x="853.6" y="320" fill="#7a7a72" font-size="10" font-weight="700" letter-spacing="1.5">PULL REQUESTS</text>
<text x="853.6" y="340" fill="#ff5f8f" font-size="24" font-weight="800" letter-spacing="-1">29</text>
<text x="853.6" y="358" fill="#4a4a44" font-size="11">83% merged</text>
<line x1="843.6" y1="316" x2="843.6" y2="370" stroke="#242424"/>

  <!-- Language treemap -->
  <line x1="44" y1="404" x2="1056" y2="404" stroke="#242424"/>
  <text x="44" y="416" fill="#f5f5f0" font-size="11" font-weight="700" letter-spacing="2">LANGUAGE MIX</text>
  <rect x="46.00" y="428.00" width="415.36" height="126.00" rx="4" fill="#3178c6" opacity="0.92"><title>TypeScript · 41.4%</title></rect>
<text x="54.00" y="446.00" fill="#f8fafc" font-size="12" font-weight="800" class="sans">TypeScript</text>
<text x="54.00" y="460.00" fill="#f8fafc" font-size="10" opacity="0.85">41.4%</text>
<rect x="465.36" y="428.00" width="389.81" height="126.00" rx="4" fill="#3572A5" opacity="0.92"><title>Python · 38.9%</title></rect>
<text x="473.36" y="446.00" fill="#f8fafc" font-size="12" font-weight="800" class="sans">Python</text>
<text x="473.36" y="460.00" fill="#f8fafc" font-size="10" opacity="0.85">38.9%</text>
<rect x="859.17" y="428.00" width="73.82" height="126.00" rx="4" fill="#41b883" opacity="0.92"><title>Vue · 7.7%</title></rect>
<text x="867.17" y="446.00" fill="#f8fafc" font-size="12" font-weight="800" class="sans">Vue</text>
<text x="867.17" y="460.00" fill="#f8fafc" font-size="10" opacity="0.85">7.7%</text>
<rect x="936.99" y="428.00" width="58.73" height="107.26" rx="4" fill="#f1e05a" opacity="0.92"><title>JavaScript · 5.3%</title></rect>
<text x="944.99" y="446.00" fill="#0b1320" font-size="12" font-weight="800" class="sans">JavaScript</text>
<text x="944.99" y="460.00" fill="#0b1320" font-size="10" opacity="0.85">5.3%</text>
<rect x="999.73" y="428.00" width="54.27" height="107.26" rx="4" fill="#a855f7" opacity="0.92"><title>CSS · 4.9%</title></rect>
<rect x="936.99" y="539.26" width="85.39" height="14.74" rx="4" fill="#e34c26" opacity="0.92"><title>HTML · 1.3%</title></rect>
<rect x="1026.39" y="539.26" width="27.61" height="14.74" rx="4" fill="#475569" opacity="0.92"><title>Other · 0.5%</title></rect>

  <!-- Work categories -->
  <text x="44" y="600" fill="#f5f5f0" font-size="11" font-weight="700" letter-spacing="2">WORK CATEGORIES</text>
<text x="1056" y="600" fill="#4a4a44" font-size="10.5" letter-spacing="1" text-anchor="end">FOCUS TOP-3 48%</text>
  <rect x="44.00" y="612" width="465.99" height="12" rx="3" fill="#F7EE00"><title>Web Apps · 277</title></rect>
<rect x="511.99" y="612" width="205.81" height="12" rx="3" fill="#5fd4d0"><title>Competitive ML · 123</title></rect>
<rect x="719.79" y="612" width="188.91" height="12" rx="3" fill="#ff8a3d"><title>Other · 113</title></rect>
<rect x="910.70" y="612" width="143.30" height="12" rx="3" fill="#9d8cff"><title>AI / Agents · 86</title></rect>
  <rect x="44.0" y="637" width="10" height="10" rx="2" fill="#F7EE00"/>
<text x="60.0" y="646" fill="#c9c9c0" font-size="11">Web Apps</text>
<text x="60.0" y="661" fill="#7a7a72" font-size="10">46%</text>
<rect x="297.0" y="637" width="10" height="10" rx="2" fill="#5fd4d0"/>
<text x="313.0" y="646" fill="#c9c9c0" font-size="11">Competitive ML</text>
<text x="313.0" y="661" fill="#7a7a72" font-size="10">21%</text>
<rect x="550.0" y="637" width="10" height="10" rx="2" fill="#ff8a3d"/>
<text x="566.0" y="646" fill="#c9c9c0" font-size="11">Other</text>
<text x="566.0" y="661" fill="#7a7a72" font-size="10">19%</text>
<rect x="803.0" y="637" width="10" height="10" rx="2" fill="#9d8cff"/>
<text x="819.0" y="646" fill="#c9c9c0" font-size="11">AI / Agents</text>
<text x="819.0" y="661" fill="#7a7a72" font-size="10">14%</text>

  <!-- Bottom: top projects + OSS -->
  <text x="44" y="688" fill="#f5f5f0" font-size="11" font-weight="700" letter-spacing="2">TOP PROJECTS · 7D</text>
<text x="554" y="688" fill="#f5f5f0" font-size="11" font-weight="700" letter-spacing="2">OSS CONTRIBUTIONS</text>
<text x="1056" y="688" fill="#4a4a44" font-size="10.5" letter-spacing="1" text-anchor="end">11/16 MERGED</text>
<line x1="44" y1="700" x2="514" y2="700" stroke="#242424"/>
<line x1="554" y1="700" x2="1056" y2="700" stroke="#242424"/>
  <text x="44" y="714" fill="#c9c9c0" font-size="12" font-weight="600">aloktripathi1</text>
<rect x="174" y="706" width="270" height="6" rx="1" fill="#242424"/>
<rect x="174" y="706" width="270.0" height="6" rx="1" fill="#F7EE00"/>
<text x="490" y="714" fill="#7a7a72" font-size="11" text-anchor="end">18</text>
<text x="44" y="736" fill="#c9c9c0" font-size="12" font-weight="600">thirsty-ai</text>
<rect x="174" y="728" width="270" height="6" rx="1" fill="#242424"/>
<rect x="174" y="728" width="105.0" height="6" rx="1" fill="#F7EE00"/>
<text x="490" y="736" fill="#7a7a72" font-size="11" text-anchor="end">7</text>
<text x="44" y="758" fill="#c9c9c0" font-size="12" font-weight="600">Reed</text>
<rect x="174" y="750" width="270" height="6" rx="1" fill="#242424"/>
<rect x="174" y="750" width="90.0" height="6" rx="1" fill="#F7EE00"/>
<text x="490" y="758" fill="#7a7a72" font-size="11" text-anchor="end">6</text>
<text x="44" y="780" fill="#c9c9c0" font-size="12" font-weight="600">tds-project-1</text>
<rect x="174" y="772" width="270" height="6" rx="1" fill="#242424"/>
<rect x="174" y="772" width="75.0" height="6" rx="1" fill="#F7EE00"/>
<text x="490" y="780" fill="#7a7a72" font-size="11" text-anchor="end">5</text>
  <text x="554" y="714" fill="#c9c9c0" font-size="12" font-weight="600">Khushi-Choudhary11/SachCheck</text>
<text x="1056" y="714" fill="#F7EE00" font-size="11" font-weight="700" text-anchor="end">7/7 merged</text>
<text x="554" y="736" fill="#c9c9c0" font-size="12" font-weight="600">mem0ai/mem0</text>
<text x="1056" y="736" fill="#F7EE00" font-size="11" font-weight="700" text-anchor="end">2/4 merged</text>
<text x="554" y="758" fill="#c9c9c0" font-size="12" font-weight="600">run-llama/llama_index</text>
<text x="1056" y="758" fill="#F7EE00" font-size="11" font-weight="700" text-anchor="end">1/1 merged</text>
<text x="554" y="780" fill="#c9c9c0" font-size="12" font-weight="600">qdrant/qdrant-client</text>
<text x="1056" y="780" fill="#F7EE00" font-size="11" font-weight="700" text-anchor="end">1/1 merged</text>
</svg>
